<svg width="18" height="19" viewBox="0 0 18 19" fill="none" xmlns="http://www.w3.org/2000/svg">
<path d="M15.75 4.98486C13.2525 4.73736 10.74 4.60986 8.235 4.60986C6.75 4.60986 5.265 4.68486 3.78 4.83486L2.25 4.98486" stroke="#FF3B3B" stroke-width="1.5" stroke-linecap="round" stroke-linejoin="round"/>
<path d="M6.375 4.2275L6.54 3.245C6.66 2.5325 6.75 2 8.0175 2H9.9825C11.25 2 11.3475 2.5625 11.46 3.2525L11.625 4.2275" stroke="#FF3B3B" stroke-width="1.5" stroke-linecap="round" stroke-linejoin="round"/>
<path d="M14.1373 7.35498L13.6498 14.9075C13.5673 16.085 13.4998 17 11.4073 17H6.5923C4.4998 17 4.4323 16.085 4.3498 14.9075L3.8623 7.35498" stroke="#FF3B3B" stroke-width="1.5" stroke-linecap="round" stroke-linejoin="round"/>
<path d="M7.74756 12.875H10.2451" stroke="#FF3B3B" stroke-width="1.5" stroke-linecap="round" stroke-linejoin="round"/>
<path d="M7.125 9.875H10.875" stroke="#FF3B3B" stroke-width="1.5" stroke-linecap="round" stroke-linejoin="round"/>
</svg>
